<svg width="43" height="43" viewBox="0 0 43 43" fill="none" xmlns="http://www.w3.org/2000/svg">
<g clip-path="url(#clip0_429_1012)">
<path d="M9.59277 0.900879H11.4566V2.74848H13.1745V0.900879H15.0383V6.4923H13.1745V4.6285H11.4728V6.4923H9.59277M17.5018 2.76469H15.8568V0.900879H21.0187V2.76469H19.3656V6.4923H17.5018M21.8372 0.900879H23.7901L24.9895 2.87003L26.1888 0.900879H28.1417V6.4923H26.2779V3.7209L24.9732 5.73057L23.6686 3.7209V6.4923H21.8372M29.0655 0.900879H30.9293V4.6447H33.5711V6.4923H29.0655" fill="black"/>
<path d="M9.52792 39.0686L6.85376 9.05322H36.2533L33.5792 39.0524L21.5292 42.3911" fill="#E44D26"/>
<path d="M21.5537 39.8384V11.5166H33.5712L31.2779 37.1237" fill="#F16529"/>
<path d="M12.3157 15.1875H21.5537V18.8665H16.3512L16.6916 22.6346H21.5537V26.3055H13.3205M13.4826 28.1531H17.1778L17.4371 31.0947L21.5537 32.1968V36.0378L14.0012 33.9309" fill="#EBEBEB"/>
<path d="M30.7592 15.1875H21.5374V18.8665H30.4188M30.0866 22.6346H21.5374V26.3136H26.0753L25.6458 31.0947L21.5374 32.1968V36.0216L29.0736 33.9309" fill="white"/>
</g>
<defs>
<clipPath id="clip0_429_1012">
<rect width="41.49" height="41.49" fill="white" transform="translate(0.808594 0.900879)"/>
</clipPath>
</defs>
</svg>
